<?xml version='1.0' encoding='utf-8'?>
<svg xmlns="http://www.w3.org/2000/svg" viewBox="0 0 451.25 610"> <g transform="matrix(1.25,0,0,-1.25,0,610)"> <g transform="scale(.24)"> <path d="m900.25 1292.2h172c94.43-0.07 144.28-51.38 167-111l123-316c47.93-5.918 133.76-62.816 134-170v-401h-119v-129c-0.11-157.5-223.43-155.64-223 0v129h-804v-129c0.117-155.64-223.21-157.5-223 0v129h-119v401c-0.07812 107.18 85.66 164.08 134 170l122 316c23.313 59.62 73.168 110.93 167 111h469"/> <path d="m433.25 1412.2c168.57-0.4 305.32 137.74 305 308 0.316 170.55-136.43 308.69-305 309-168.8-0.31-305.56-138.45-306-309 0.438-170.26 137.2-308.4 306-308"/> <path d="m661.25 1873.2h652l105-105c19.11-19.88 18.61-33.36 0-52l-128-129-75 76-75-76-74 75-72-73-75 76-98-99h-160v307"/> <path d="m752.25 868.25h-483l92 249c11.152 34.53 28.418 59.7 69 60h644c40.18-0.3 57.44-25.47 69-60l92-249h-483" fill="#fff"/> <path d="m242.25,535.25c-56.961.168-103.152,47.773-103,106-.152,59.211 46.039,106.816 103,107 56.977-.184 103.16-47.789 103-107 .16-58.227-46.023-105.832-103-106" fill="#fff"/> <path d="m1262.25,535.25c56.56.168 102.75,47.773 103,106-.25,59.211-46.44,106.816-103,107-57.37-.184-103.57-47.789-104-107 .43-58.227 46.63-105.832 104-106" fill="#fff"/> <path d="m299.25,1640.25c44.48-.24 80.777,36.44 81,82-.223,44.89-36.52,81.56-81,82-45.062-.44-81.363-37.11-81-82-.363-45.56 35.938-82.24 81-82" fill="#fff"/> </g> </g> </svg>